<svg width="115" height="35" viewBox="0 0 115 35" fill="none" xmlns="http://www.w3.org/2000/svg">
<path d="M10.716 3.508C14.7347 3.508 17.8587 4.344 20.088 6.016C22.3173 7.688 23.432 10.1667 23.432 13.452C23.432 16.884 22.332 19.48 20.132 21.24C17.9613 22.9707 15.0427 23.836 11.376 23.836H8.076V34H0.86V3.508H10.716ZM10.76 18.644C12.4613 18.644 13.752 18.248 14.632 17.456C15.5413 16.6347 15.996 15.3 15.996 13.452C15.996 10.2547 14.2067 8.656 10.628 8.656H8.076V18.644H10.76ZM46.1508 21.856C46.1508 22.824 46.1068 23.66 46.0188 24.364H31.5428C31.7774 26.3293 32.3348 27.708 33.2148 28.5C34.0948 29.292 35.3121 29.688 36.8668 29.688C37.8054 29.688 38.7148 29.5267 39.5948 29.204C40.4748 28.852 41.4281 28.324 42.4548 27.62L45.3148 31.492C42.5868 33.6627 39.5508 34.748 36.2068 34.748C32.4228 34.748 29.5188 33.6333 27.4948 31.404C25.4708 29.1747 24.4588 26.1827 24.4588 22.428C24.4588 20.052 24.8841 17.9253 25.7348 16.048C26.5854 14.1413 27.8321 12.6453 29.4748 11.56C31.1174 10.4453 33.0828 9.888 35.3708 9.888C38.7441 9.888 41.3841 10.944 43.2908 13.056C45.1974 15.168 46.1508 18.1013 46.1508 21.856ZM39.3308 19.876C39.2721 16.2973 38.0108 14.508 35.5468 14.508C34.3441 14.508 33.4054 14.948 32.7308 15.828C32.0854 16.708 31.6894 18.16 31.5428 20.184H39.3308V19.876ZM71.0001 1.352V34H64.8401L64.4881 31.272C62.8455 33.5893 60.6308 34.748 57.8441 34.748C54.9401 34.748 52.7255 33.6333 51.2001 31.404C49.7041 29.1747 48.9561 26.124 48.9561 22.252C48.9561 19.876 49.3521 17.7493 50.1441 15.872C50.9361 13.9947 52.0508 12.528 53.4881 11.472C54.9548 10.416 56.6268 9.888 58.5041 9.888C60.7335 9.888 62.5815 10.6213 64.0481 12.088V0.603997L71.0001 1.352ZM60.0001 29.644C61.6135 29.644 62.9628 28.764 64.0481 27.004V16.928C63.4908 16.2533 62.9188 15.7547 62.3321 15.432C61.7748 15.1093 61.1295 14.948 60.3961 14.948C59.1055 14.948 58.0788 15.5493 57.3161 16.752C56.5535 17.9547 56.1721 19.8027 56.1721 22.296C56.1721 25.024 56.4948 26.9307 57.1401 28.016C57.8148 29.1013 58.7681 29.644 60.0001 29.644ZM89.1109 9.976C89.9616 9.976 90.7389 10.0787 91.4429 10.284L90.3429 17.016C89.4629 16.8107 88.7589 16.708 88.2309 16.708C86.8523 16.708 85.7963 17.192 85.0629 18.16C84.3589 19.0987 83.8016 20.5213 83.3909 22.428V34H76.4389V10.636H82.5109L83.0829 15.168C83.6109 13.5547 84.4029 12.2933 85.4589 11.384C86.5443 10.4453 87.7616 9.976 89.1109 9.976ZM102.887 9.888C106.466 9.888 109.267 10.988 111.291 13.188C113.315 15.3587 114.327 18.4093 114.327 22.34C114.327 24.8333 113.858 27.0187 112.919 28.896C112.01 30.744 110.69 32.1813 108.959 33.208C107.258 34.2347 105.234 34.748 102.887 34.748C99.3377 34.748 96.5364 33.6627 94.4831 31.492C92.4591 29.292 91.4471 26.2267 91.4471 22.296C91.4471 19.8027 91.9017 17.632 92.8111 15.784C93.7497 13.9067 95.0697 12.4547 96.7711 11.428C98.5017 10.4013 100.54 9.888 102.887 9.888ZM102.887 14.992C101.479 14.992 100.423 15.5933 99.7191 16.796C99.0151 17.9693 98.6631 19.8027 98.6631 22.296C98.6631 24.848 99.0004 26.7107 99.6751 27.884C100.379 29.0573 101.45 29.644 102.887 29.644C104.295 29.644 105.351 29.0573 106.055 27.884C106.759 26.6813 107.111 24.8333 107.111 22.34C107.111 19.788 106.759 17.9253 106.055 16.752C105.38 15.5787 104.324 14.992 102.887 14.992Z" fill="black"/>
</svg>
